<svg id="chip" xmlns="http://www.w3.org/2000/svg" viewBox="0 0 600 300"><defs><style>.cls-1{fill:#333;}.cls-2{fill:#b9d532;}</style></defs><rect class="cls-1" x="0.5" y="10.75" width="599" height="278.5"/><path d="M811,200.25v277.5H213V200.25H811m1-1H212v279.5H812V199.25Z" transform="translate(-212 -189)"/><rect class="cls-2" x="35" width="24" height="10.25"/><rect class="cls-2" x="86.6" width="24" height="10.25"/><rect class="cls-2" x="138.2" width="24" height="10.25"/><rect class="cls-2" x="189.8" width="24" height="10.25"/><rect class="cls-2" x="241.4" width="24" height="10.25"/><rect class="cls-2" x="293" width="24" height="10.25"/><rect class="cls-2" x="344.6" width="24" height="10.25"/><rect class="cls-2" x="396.2" width="24" height="10.25"/><rect class="cls-2" x="447.8" width="24" height="10.25"/><rect class="cls-2" x="499.4" width="24" height="10.25"/><rect class="cls-2" x="551" width="24" height="10.25"/><rect class="cls-2" x="35" y="289.75" width="24" height="10.25"/><rect class="cls-2" x="86.6" y="289.75" width="24" height="10.25"/><rect class="cls-2" x="138.2" y="289.75" width="24" height="10.25"/><rect class="cls-2" x="189.8" y="289.75" width="24" height="10.25"/><rect class="cls-2" x="241.4" y="289.75" width="24" height="10.25"/><rect class="cls-2" x="293" y="289.75" width="24" height="10.25"/><rect class="cls-2" x="344.6" y="289.75" width="24" height="10.25"/><rect class="cls-2" x="396.2" y="289.75" width="24" height="10.25"/><rect class="cls-2" x="447.8" y="289.75" width="24" height="10.25"/><rect class="cls-2" x="499.4" y="289.75" width="24" height="10.25"/><rect class="cls-2" x="551" y="289.75" width="24" height="10.25"/></svg>