<svg id="Layer_1" data-name="Layer 1" xmlns="http://www.w3.org/2000/svg" viewBox="0 0 1261 1248"><defs><style>.cls-1{fill:none;stroke:#8cc63f;stroke-miterlimit:10;stroke-width:4px;}.cls-2{fill:#feffdf;}</style></defs><polyline class="cls-1" points="220 198.51 220 359 120 509 120 831.5 53 994 120 1043.38"/><circle class="cls-2" cx="219.5" cy="198.5" r="5.5"/><circle class="cls-2" cx="120.5" cy="1041.5" r="5.5"/><polyline class="cls-1" points="245 28.51 345 59 245 260 245 359 145 509 145 700.38"/><circle class="cls-2" cx="244.5" cy="28.5" r="5.5"/><circle class="cls-2" cx="145.5" cy="698.5" r="5.5"/><polyline class="cls-1" points="195 87.51 195 360 95 510 95 759 20 939.38"/><circle class="cls-2" cx="194.5" cy="87.5" r="5.5"/><circle class="cls-2" cx="20.5" cy="937.5" r="5.5"/><polyline class="cls-1" points="170 254.51 170 361 70 511 70 734.38"/><circle class="cls-2" cx="169.5" cy="254.5" r="5.5"/><circle class="cls-2" cx="70.5" cy="732.5" r="5.5"/><polyline class="cls-1" points="892 426.51 892 515 992 665 992 856.38"/><circle class="cls-2" cx="892.5" cy="426.5" r="5.5"/><circle class="cls-2" cx="991.5" cy="854.5" r="5.5"/><polyline class="cls-1" points="867 267.51 867 515 967 665 967 856.38"/><circle class="cls-2" cx="867.5" cy="267.5" r="5.5"/><circle class="cls-2" cx="966.5" cy="854.5" r="5.5"/><polyline class="cls-1" points="637 87.51 842 330.5 842 515 942 665 942 856.38"/><circle class="cls-2" cx="637.5" cy="87.5" r="5.5"/><circle class="cls-2" cx="941.5" cy="854.5" r="5.5"/><line class="cls-1" x1="180" y1="510.51" x2="184" y2="860.38"/><circle class="cls-2" cx="180.5" cy="510.5" r="5.5"/><circle class="cls-2" cx="183.5" cy="858.5" r="5.5"/><line class="cls-1" x1="205" y1="465.51" x2="208" y2="996.38"/><circle class="cls-2" cx="205.5" cy="465.5" r="5.5"/><circle class="cls-2" cx="207.5" cy="994.5" r="5.5"/><line class="cls-1" x1="909" y1="667.51" x2="912" y2="1198.38"/><circle class="cls-2" cx="909.5" cy="667.5" r="5.5"/><circle class="cls-2" cx="911.5" cy="1196.5" r="5.5"/><line class="cls-1" x1="879" y1="713.51" x2="882" y2="1244.38"/><circle class="cls-2" cx="879.5" cy="713.5" r="5.5"/><circle class="cls-2" cx="881.5" cy="1242.5" r="5.5"/><polyline class="cls-1" points="849 588.51 850.01 809 775 994 852 1244.38"/><circle class="cls-2" cx="849.5" cy="588.5" r="5.5"/><circle class="cls-2" cx="851.5" cy="1242.5" r="5.5"/><polyline class="cls-1" points="823 727.51 824.01 809 749 994 826 1244.38"/><circle class="cls-2" cx="823.5" cy="727.5" r="5.5"/><circle class="cls-2" cx="825.5" cy="1242.5" r="5.5"/><polyline class="cls-1" points="232 510.51 232 859 340 1075.38"/><circle class="cls-2" cx="232.5" cy="510.5" r="5.5"/><circle class="cls-2" cx="339.5" cy="1073.5" r="5.5"/><polyline class="cls-1" points="94 831.51 20 993 98 1181.38"/><circle class="cls-2" cx="94.5" cy="831.5" r="5.5"/><circle class="cls-2" cx="97.5" cy="1179.5" r="5.5"/><line class="cls-1" x1="53" y1="994" x2="123" y2="1181.38"/><circle class="cls-2" cx="122.5" cy="1179.5" r="5.5"/><polyline class="cls-1" points="144 748.51 145 832 79 994 148 1181.38"/><circle class="cls-2" cx="144.5" cy="748.5" r="5.5"/><circle class="cls-2" cx="147.5" cy="1179.5" r="5.5"/><polyline class="cls-1" points="81 5.51 84.21 439.29 6 551.38"/><circle class="cls-2" cx="81.5" cy="5.5" r="5.5"/><circle class="cls-2" cx="5.5" cy="549.5" r="5.5"/><line class="cls-1" x1="106" y1="5.51" x2="110" y2="401.38"/><circle class="cls-2" cx="106.5" cy="5.5" r="5.5"/><circle class="cls-2" cx="109.5" cy="399.5" r="5.5"/><line class="cls-1" x1="131" y1="5.51" x2="135" y2="355.38"/><circle class="cls-2" cx="131.5" cy="5.5" r="5.5"/><circle class="cls-2" cx="134.5" cy="353.5" r="5.5"/><line class="cls-1" x1="972" y1="87.51" x2="1256" y2="428.38"/><circle class="cls-2" cx="972.5" cy="87.5" r="5.5"/><circle class="cls-2" cx="1255.5" cy="426.5" r="5.5"/><line class="cls-1" x1="942" y1="87.51" x2="1226" y2="428.38"/><circle class="cls-2" cx="942.5" cy="87.5" r="5.5"/><circle class="cls-2" cx="1225.5" cy="426.5" r="5.5"/><line class="cls-1" x1="912" y1="87.51" x2="1196" y2="428.38"/><circle class="cls-2" cx="912.5" cy="87.5" r="5.5"/><circle class="cls-2" cx="1195.5" cy="426.5" r="5.5"/><line class="cls-1" x1="880" y1="87.51" x2="1164" y2="428.38"/><circle class="cls-2" cx="880.5" cy="87.5" r="5.5"/><circle class="cls-2" cx="1163.5" cy="426.5" r="5.5"/><line class="cls-1" x1="850" y1="87.51" x2="1134" y2="428.38"/><circle class="cls-2" cx="850.5" cy="87.5" r="5.5"/><circle class="cls-2" cx="1133.5" cy="426.5" r="5.5"/><line class="cls-1" x1="820" y1="87.51" x2="1104" y2="428.38"/><circle class="cls-2" cx="820.5" cy="87.5" r="5.5"/><circle class="cls-2" cx="1103.5" cy="426.5" r="5.5"/><line class="cls-1" x1="790" y1="87.51" x2="1074" y2="428.38"/><circle class="cls-2" cx="790.5" cy="87.5" r="5.5"/><circle class="cls-2" cx="1073.5" cy="426.5" r="5.5"/><polyline class="cls-1" points="760 87.51 963.29 331.51 963 428.38"/><circle class="cls-2" cx="760.5" cy="87.5" r="5.5"/><circle class="cls-2" cx="962.5" cy="426.5" r="5.5"/><polyline class="cls-1" points="260 764.51 259.84 858.38 453 1237.38"/><circle class="cls-2" cx="260.5" cy="764.5" r="5.5"/><circle class="cls-2" cx="452.5" cy="1235.5" r="5.5"/><polyline class="cls-1" points="917 331.51 917 516 1017 666 1017 857.38"/><circle class="cls-2" cx="917.5" cy="331.5" r="5.5"/><circle class="cls-2" cx="1016.5" cy="855.5" r="5.5"/><polyline class="cls-1" points="942 410.51 942 517 1042 667 1042 858.38"/><circle class="cls-2" cx="942.5" cy="410.5" r="5.5"/><circle class="cls-2" cx="1041.5" cy="856.5" r="5.5"/></svg>